# xmcd
#
# Track frame offsets:
#	150
#	16725
#	46650
#	64240
#	81670
#	97788
#	116013
#	139338
#	164988
#	187442
#	209112
#	222527
#	246524
#	272304
#	286929
#
# Disc length: 4151 seconds
#
# Revision: 2
# Processed by: cddbd v1.5.2PL0 Copyright (c) Steve Scherf et al.
# Submitted via: audiograbber 1.83.01
#
DISCID=f210350f
DTITLE=Various Artist - Cigar Lounge 3
DYEAR=2003
DGENRE=Jazz
TTITLE0=Pucho and His Latin Soul Brothers - Sex Machine
TTITLE1=Cal Tjader - Philly Mambo
TTITLE2=Mongo Santamaria - Mambo De Cuco (Pachanga)
TTITLE3=Ella Fitzgerald - One Note Samba (Samba De Uma Nota)
TTITLE4=Sara Vaughan - Copacabana
TTITLE5=Chico O'Farrill - Chico And The Men
TTITLE6=Charlie Byrd - Wave
TTITLE7=Arturo O'Farrill - Siboney
TTITLE8=Luiz Bonfa - Rio Acima
TTITLE9=Vince Guaraldi and Bola Sete - Star Song
TTITLE10=Ray Barretto - Summertime
TTITLE11=Juan Amalbert's Latin Jazz Quintet - April Afternoon
TTITLE12=Manny Oquendo and Libre - Sabora A Mi
TTITLE13=Francisco Mario - Saudade Da Terra (For Baden Powell)
TTITLE14=Pucho and The Latin Soul Brothers - Sunny
EXTD=
EXTT0=
EXTT1=
EXTT2=
EXTT3=
EXTT4=
EXTT5=
EXTT6=
EXTT7=
EXTT8=
EXTT9=
EXTT10=
EXTT11=
EXTT12=
EXTT13=
EXTT14=
PLAYORDER=
